# xmcd
#
# Track frame offsets:
#   150
#   8875
#   29205
#   47282
#   62394
#   77374
#   91078
#   108058
#   118740
#   126490
#   135339
#   147005
#   163240
#   179482
#   198626
#   210614
#   227274
#   246089
#   263340
#   282651
#   297626
#
# Disc length: 4724 seconds
#
# Revision: 0
# Processed by: cddbd v1.5.1PL2 Copyright (c) Steve Scherf et al.
# Submitted via: uFREEDB ActiveX Control 1.5
#
DISCID=26127215
DTITLE=Arrocha o nó - Ao Vivo
DYEAR=2005
DGENRE=Pop
TTITLE0=Abertura
TTITLE1=A Natureza
TTITLE2=Chororo
TTITLE3=Linda
TTITLE4=Flor do Xote
TTITLE5=Meu Cenario
TTITLE6=Diferenca de Idade
TTITLE7=Cade a Mulher
TTITLE8=Vem Morena
TTITLE9=Xililique
TTITLE10=Jogo de Cintura
TTITLE11=Coração
TTITLE12=Loucura Maior
TTITLE13=Ele Chorou de Amor
TTITLE14=Pega pega Come come
TTITLE15=Forro da Patricinha
TTITLE16=Os coraçoes nao sao iguais
TTITLE17=Dona
TTITLE18=Sinonimos
TTITLE19=Apaixonado
TTITLE20=Quadrilha do arrocha o no
EXTD=
EXTT0=
EXTT1=
EXTT2=
EXTT3=
EXTT4=
EXTT5=
EXTT6=
EXTT7=
EXTT8=
EXTT9=
EXTT10=
EXTT11=
EXTT12=
EXTT13=
EXTT14=
EXTT15=
EXTT16=
EXTT17=
EXTT18=
EXTT19=
EXTT20=
PLAYORDER=
